<svg xmlns="http://www.w3.org/2000/svg" version="1.1" xmlns:xlink="http://www.w3.org/1999/xlink" width="100" height="125"><svg xmlns="http://www.w3.org/2000/svg" version="1.1" xmlns:xlink="http://www.w3.org/1999/xlink" width="100" height="125"><svg xmlns="http://www.w3.org/2000/svg" xmlns:xlink="http://www.w3.org/1999/xlink" version="1.1" x="0px" y="0px" viewBox="0 0 100 125" enable-background="new 0 0 100 100" xml:space="preserve"><g><g><path d="M92.793,30.257c-2.07,0-3.745,1.678-3.745,3.745v3.385l-6.276-17.799c-0.72-2.045-2.965-3.117-5.013-2.403    c-2.05,0.725-3.125,2.969-2.404,5.018l6.703,19.011L67.539,18.859c-1.299-1.993-3.965-2.557-5.963-1.265    c-1.993,1.299-2.559,3.963-1.263,5.96l11.556,17.786l13.445,7.523c0.724,0.407,0.979,1.316,0.577,2.042    c-0.278,0.49-0.786,0.766-1.311,0.766c-0.247,0-0.496-0.061-0.73-0.189l-7.597-4.233c-2.457-1.464-7.782-3.804-12.709-2.97    c-4.089,0.694-7.8,2.787-10.416,6.011c-0.196,0.243-0.357,0.5-0.492,0.769L4.164,1.941c-0.689-0.736-1.814-0.929-2.4-0.376    C1.222,2.076,1.279,3.33,1.969,4.068l50.846,54.678c-2.143,0.503-3.47,2.563-3.236,4.796c0.566,5.399,4.68,9.925,7.664,11.982    l16.825,12.279v12.052h22.47V34.002C96.538,31.935,94.863,30.257,92.793,30.257z M67.502,69.091    c-2.589,0.418-5.09-0.458-6.899-2.117c0.292,0.179,0.607,0.303,0.941,0.303c0.447,0,0.896-0.164,1.247-0.494    c0.738-0.69,3.187-2.43,0.521-4.907l-5.019-5.083c0.544-0.264,1.042-0.637,1.447-1.137c1.295-1.59,3.116-2.643,5.143-2.964    c2.194-0.352,4.382,0.17,6.181,1.476c1.792,1.302,2.979,3.228,3.328,5.413C75.113,64.102,72.023,68.365,67.502,69.091z"></path><rect x="0.926" y="34.561" transform="matrix(0.7719 0.6357 -0.6357 0.7719 26.6372 -3.1468)" width="33.557" height="1.981"></rect><rect x="10.771" y="48.701" transform="matrix(-0.859 -0.512 0.512 -0.859 15.3291 103.6036)" width="22.321" height="1.98"></rect></g></g><text x="0" y="115" fill="#000000" font-size="5px" font-weight="bold" font-family="'Helvetica Neue', Helvetica, Arial-Unicode, Arial, Sans-serif">Created by Luis Prado</text><text x="0" y="120" fill="#000000" font-size="5px" font-weight="bold" font-family="'Helvetica Neue', Helvetica, Arial-Unicode, Arial, Sans-serif">from the Noun Project</text></svg></svg><style>@media (prefers-color-scheme: light) { :root { filter: none; } }
@media (prefers-color-scheme: dark) { :root { filter: invert(100%); } }
</style></svg>